<?xml version="1.0" encoding="us-ascii" standalone="no"?><svg xmlns="http://www.w3.org/2000/svg" xmlns:xlink="http://www.w3.org/1999/xlink" contentStyleType="text/css" height="913px" preserveAspectRatio="none" style="width:2706px;height:913px;background:#FAFAFA;" version="1.1" viewBox="0 0 2706 913" width="2706px" zoomAndPan="magnify"><defs/><g><rect fill="#FAFAFA" height="913" style="stroke:none;stroke-width:1.0;" width="2706" x="0" y="0"/><!--cluster Domain Layer--><g id="cluster_Domain Layer"><path d="M1248,108 L1350,108 A7.5,7.5 0 0 1 1355,113 L1362,131.0146 L2070,131.0146 A5,5 0 0 1 2075,136.0146 L2075,314 A5,5 0 0 1 2070,319 L1248,319 A5,5 0 0 1 1243,314 L1243,113 A5,5 0 0 1 1248,108 " fill="#E8F5E8" style="stroke:#333333;stroke-width:1.0;"/><line style="stroke:#333333;stroke-width:1.0;" x1="1243" x2="1362" y1="131.0146" y2="131.0146"/><text fill="#000000" font-family="Verdana" font-size="14" font-weight="bold" lengthAdjust="spacing" textLength="106" x="1247" y="124.0752">Domain Layer</text></g><!--cluster Data Layer--><g id="cluster_Data Layer"><path d="M243,401 L322,401 A7.5,7.5 0 0 1 327,406 L334,424.0146 L1370,424.0146 A5,5 0 0 1 1375,429.0146 L1375,901 A5,5 0 0 1 1370,906 L243,906 A5,5 0 0 1 238,901 L238,406 A5,5 0 0 1 243,401 " fill="#E3F2FD" style="stroke:#333333;stroke-width:1.0;"/><line style="stroke:#333333;stroke-width:1.0;" x1="238" x2="334" y1="424.0146" y2="424.0146"/><text fill="#000000" font-family="Verdana" font-size="14" font-weight="bold" lengthAdjust="spacing" textLength="83" x="242" y="417.0752">Data Layer</text></g><!--cluster Presentation Layer--><g id="cluster_Presentation Layer"><path d="M1420,384 L1562,384 A7.5,7.5 0 0 1 1567,389 L1574,407.0146 L2522,407.0146 A5,5 0 0 1 2527,412.0146 L2527,867 A5,5 0 0 1 2522,872 L1420,872 A5,5 0 0 1 1415,867 L1415,389 A5,5 0 0 1 1420,384 " fill="#FFF3E0" style="stroke:#333333;stroke-width:1.0;"/><line style="stroke:#333333;stroke-width:1.0;" x1="1415" x2="1574" y1="407.0146" y2="407.0146"/><text fill="#000000" font-family="Verdana" font-size="14" font-weight="bold" lengthAdjust="spacing" textLength="146" x="1419" y="400.0752">Presentation Layer</text></g><!--class AppUser--><g id="elem_AppUser"><rect codeLine="14" fill="#FFFFFF" height="95.0439" id="AppUser" rx="5" ry="5" style="stroke:#666666;stroke-width:1.0;" width="162" x="1286" y="176"/><ellipse cx="1333.25" cy="190" fill="#FFFFFF" rx="9" ry="9" style="stroke:#000000;stroke-width:1.0;"/><path d="M1336.0156,191.5313 L1338.4063,192.2813 Q1337.8594,194.2656 1336.5781,195.2344 Q1335.3125,196.2031 1333.3438,196.2031 Q1330.9219,196.2031 1329.3594,194.5469 Q1327.8125,192.8906 1327.8125,190.0156 Q1327.8125,186.9844 1329.375,185.3125 Q1330.9375,183.625 1333.5,183.625 Q1335.7344,183.625 1337.125,184.9375 Q1337.9531,185.7188 1338.375,187.1875 L1335.9375,187.7656 Q1335.7188,186.8125 1335.0313,186.2656 Q1334.3594,185.7188 1333.375,185.7188 Q1332.0156,185.7188 1331.1719,186.7031 Q1330.3438,187.6719 1330.3438,189.8438 Q1330.3438,192.1406 1331.1719,193.125 Q1332,194.1094 1333.3281,194.1094 Q1334.3125,194.1094 1335.0156,193.4844 Q1335.7188,192.8594 1336.0156,191.5313 Z " fill="#000000"/><text fill="#000000" font-family="Verdana" font-size="14" lengthAdjust="spacing" textLength="60" x="1350.75" y="195.5679">AppUser</text><line style="stroke:#666666;stroke-width:1.0;" x1="1287" x2="1447" y1="204" y2="204"/><ellipse cx="1297" cy="218.0073" fill="none" rx="3" ry="3" style="stroke:#000000;stroke-width:1.0;"/><text fill="#000000" font-family="Verdana" font-size="14" lengthAdjust="spacing" textLength="69" x="1304" y="222.0752">String uid</text><ellipse cx="1297" cy="235.022" fill="none" rx="3" ry="3" style="stroke:#000000;stroke-width:1.0;"/><text fill="#000000" font-family="Verdana" font-size="14" lengthAdjust="spacing" textLength="83" x="1304" y="239.0898">String email</text><line style="stroke:#666666;stroke-width:1.0;" x1="1287" x2="1447" y1="246.0293" y2="246.0293"/><ellipse cx="1297" cy="260.0366" fill="#FFFFFF" rx="3" ry="3" style="stroke:#000000;stroke-width:1.0;"/><text fill="#000000" font-family="Verdana" font-size="14" lengthAdjust="spacing" textLength="138" x="1304" y="264.1045">AppUser(uid, email)</text></g><!--class AuthRepository--><g id="elem_AuthRepository"><rect codeLine="20" fill="#FFFFFF" height="142.6719" id="AuthRepository" rx="5" ry="5" style="stroke:#666666;stroke-width:1.0;" width="568" x="1483" y="152"/><ellipse cx="1708.25" cy="172.7993" fill="#FFFFFF" rx="9" ry="9" style="stroke:#000000;stroke-width:1.0;"/><path d="M1707.4063,178.7993 L1707.4063,166.6274 L1709.875,166.6274 L1709.875,178.7993 L1707.4063,178.7993 Z " fill="#000000"/><text fill="#000000" font-family="Verdana" font-size="12" font-style="italic" lengthAdjust="spacing" textLength="68" x="1746.75" y="169.0645">&#171;interface&#187;</text><text fill="#000000" font-family="Verdana" font-size="14" font-style="italic" lengthAdjust="spacing" textLength="110" x="1725.75" y="185.6592">AuthRepository</text><line style="stroke:#666666;stroke-width:1.0;" x1="1484" x2="2050" y1="193.5986" y2="193.5986"/><ellipse cx="1494" cy="207.606" fill="none" rx="3" ry="3" style="stroke:#000000;stroke-width:1.0;"/><text fill="#000000" font-family="Verdana" font-size="14" lengthAdjust="spacing" textLength="343" x="1501" y="211.6738">Stream&lt;Result&lt;AppUser?&gt;&gt; authStateChanges</text><line style="stroke:#666666;stroke-width:1.0;" x1="1484" x2="2050" y1="218.6133" y2="218.6133"/><ellipse cx="1494" cy="232.6206" fill="#FFFFFF" rx="3" ry="3" style="stroke:#000000;stroke-width:1.0;"/><text fill="#000000" font-family="Verdana" font-size="14" lengthAdjust="spacing" textLength="274" x="1501" y="236.6885">Future&lt;Result&lt;AppUser?&gt;&gt; getUser()</text><ellipse cx="1494" cy="249.6353" fill="#FFFFFF" rx="3" ry="3" style="stroke:#000000;stroke-width:1.0;"/><text fill="#000000" font-family="Verdana" font-size="14" lengthAdjust="spacing" textLength="539" x="1501" y="253.7031">Future&lt;Result&lt;AppUser?&gt;&gt; signInWithEmailAndPassword(email, password)</text><ellipse cx="1494" cy="266.6499" fill="#FFFFFF" rx="3" ry="3" style="stroke:#000000;stroke-width:1.0;"/><text fill="#000000" font-family="Verdana" font-size="14" lengthAdjust="spacing" textLength="235" x="1501" y="270.7178">Future&lt;Result&lt;void&gt;&gt; signOut()</text><ellipse cx="1494" cy="283.6646" fill="#FFFFFF" rx="3" ry="3" style="stroke:#000000;stroke-width:1.0;"/><text fill="#000000" font-family="Verdana" font-size="14" lengthAdjust="spacing" textLength="544" x="1501" y="287.7324">Future&lt;Result&lt;AppUser?&gt;&gt; signUpWithEmailAndPassword(email, password)</text></g><!--class UserDto--><g id="elem_UserDto"><rect codeLine="30" fill="#FFFFFF" height="163.1025" id="UserDto" rx="5" ry="5" style="stroke:#666666;stroke-width:1.0;" width="309" x="1041.5" y="445"/><ellipse cx="1163.25" cy="459" fill="#FFFFFF" rx="9" ry="9" style="stroke:#000000;stroke-width:1.0;"/><path d="M1166.0156,460.5313 L1168.4063,461.2813 Q1167.8594,463.2656 1166.5781,464.2344 Q1165.3125,465.2031 1163.3438,465.2031 Q1160.9219,465.2031 1159.3594,463.5469 Q1157.8125,461.8906 1157.8125,459.0156 Q1157.8125,455.9844 1159.375,454.3125 Q1160.9375,452.625 1163.5,452.625 Q1165.7344,452.625 1167.125,453.9375 Q1167.9531,454.7188 1168.375,456.1875 L1165.9375,456.7656 Q1165.7188,455.8125 1165.0313,455.2656 Q1164.3594,454.7188 1163.375,454.7188 Q1162.0156,454.7188 1161.1719,455.7031 Q1160.3438,456.6719 1160.3438,458.8438 Q1160.3438,461.1406 1161.1719,462.125 Q1162,463.1094 1163.3281,463.1094 Q1164.3125,463.1094 1165.0156,462.4844 Q1165.7188,461.8594 1166.0156,460.5313 Z " fill="#000000"/><text fill="#000000" font-family="Verdana" font-size="14" lengthAdjust="spacing" textLength="58" x="1180.75" y="464.5679">UserDto</text><line style="stroke:#666666;stroke-width:1.0;" x1="1042.5" x2="1349.5" y1="473" y2="473"/><ellipse cx="1052.5" cy="487.0073" fill="none" rx="3" ry="3" style="stroke:#000000;stroke-width:1.0;"/><text fill="#000000" font-family="Verdana" font-size="14" lengthAdjust="spacing" textLength="69" x="1059.5" y="491.0752">String uid</text><ellipse cx="1052.5" cy="504.022" fill="none" rx="3" ry="3" style="stroke:#000000;stroke-width:1.0;"/><text fill="#000000" font-family="Verdana" font-size="14" lengthAdjust="spacing" textLength="91" x="1059.5" y="508.0898">String? email</text><line style="stroke:#666666;stroke-width:1.0;" x1="1042.5" x2="1349.5" y1="515.0293" y2="515.0293"/><ellipse cx="1052.5" cy="529.0366" fill="#FFFFFF" rx="3" ry="3" style="stroke:#000000;stroke-width:1.0;"/><text fill="#000000" font-family="Verdana" font-size="14" lengthAdjust="spacing" textLength="136" x="1059.5" y="533.1045">UserDto(uid, email)</text><ellipse cx="1052.5" cy="546.0513" fill="#FFFFFF" rx="3" ry="3" style="stroke:#000000;stroke-width:1.0;"/><text fill="#000000" font-family="Verdana" font-size="14" lengthAdjust="spacing" textLength="285" x="1059.5" y="550.1191">UserDto.fromFirebaseUser(firebaseUser)</text><ellipse cx="1052.5" cy="563.0659" fill="#FFFFFF" rx="3" ry="3" style="stroke:#000000;stroke-width:1.0;"/><text fill="#000000" font-family="Verdana" font-size="14" lengthAdjust="spacing" textLength="171" x="1059.5" y="567.1338">UserDto.fromJson(json)</text><ellipse cx="1052.5" cy="580.0806" fill="#FFFFFF" rx="3" ry="3" style="stroke:#000000;stroke-width:1.0;"/><text fill="#000000" font-family="Verdana" font-size="14" lengthAdjust="spacing" textLength="224" x="1059.5" y="584.1484">Map&lt;String, dynamic&gt; toJson()</text><ellipse cx="1052.5" cy="597.0952" fill="#FFFFFF" rx="3" ry="3" style="stroke:#000000;stroke-width:1.0;"/><text fill="#000000" font-family="Verdana" font-size="14" lengthAdjust="spacing" textLength="133" x="1059.5" y="601.1631">AppUser toEntity()</text></g><!--class EmailSignInRequestDto--><g id="elem_EmailSignInRequestDto"><rect codeLine="40" fill="#FFFFFF" height="129.0732" id="EmailSignInRequestDto" rx="5" ry="5" style="stroke:#666666;stroke-width:1.0;" width="314" x="692" y="462"/><ellipse cx="762.75" cy="476" fill="#FFFFFF" rx="9" ry="9" style="stroke:#000000;stroke-width:1.0;"/><path d="M765.5156,477.5313 L767.9063,478.2813 Q767.3594,480.2656 766.0781,481.2344 Q764.8125,482.2031 762.8438,482.2031 Q760.4219,482.2031 758.8594,480.5469 Q757.3125,478.8906 757.3125,476.0156 Q757.3125,472.9844 758.875,471.3125 Q760.4375,469.625 763,469.625 Q765.2344,469.625 766.625,470.9375 Q767.4531,471.7188 767.875,473.1875 L765.4375,473.7656 Q765.2188,472.8125 764.5313,472.2656 Q763.8594,471.7188 762.875,471.7188 Q761.5156,471.7188 760.6719,472.7031 Q759.8438,473.6719 759.8438,475.8438 Q759.8438,478.1406 760.6719,479.125 Q761.5,480.1094 762.8281,480.1094 Q763.8125,480.1094 764.5156,479.4844 Q765.2188,478.8594 765.5156,477.5313 Z " fill="#000000"/><text fill="#000000" font-family="Verdana" font-size="14" lengthAdjust="spacing" textLength="165" x="780.25" y="481.5679">EmailSignInRequestDto</text><line style="stroke:#666666;stroke-width:1.0;" x1="693" x2="1005" y1="490" y2="490"/><ellipse cx="703" cy="504.0073" fill="none" rx="3" ry="3" style="stroke:#000000;stroke-width:1.0;"/><text fill="#000000" font-family="Verdana" font-size="14" lengthAdjust="spacing" textLength="83" x="710" y="508.0752">String email</text><ellipse cx="703" cy="521.022" fill="none" rx="3" ry="3" style="stroke:#000000;stroke-width:1.0;"/><text fill="#000000" font-family="Verdana" font-size="14" lengthAdjust="spacing" textLength="116" x="710" y="525.0898">String password</text><line style="stroke:#666666;stroke-width:1.0;" x1="693" x2="1005" y1="532.0293" y2="532.0293"/><ellipse cx="703" cy="546.0366" fill="#FFFFFF" rx="3" ry="3" style="stroke:#000000;stroke-width:1.0;"/><text fill="#000000" font-family="Verdana" font-size="14" lengthAdjust="spacing" textLength="290" x="710" y="550.1045">EmailSignInRequestDto(email, password)</text><ellipse cx="703" cy="563.0513" fill="#FFFFFF" rx="3" ry="3" style="stroke:#000000;stroke-width:1.0;"/><text fill="#000000" font-family="Verdana" font-size="14" lengthAdjust="spacing" textLength="278" x="710" y="567.1191">EmailSignInRequestDto.fromJson(json)</text><ellipse cx="703" cy="580.0659" fill="#FFFFFF" rx="3" ry="3" style="stroke:#000000;stroke-width:1.0;"/><text fill="#000000" font-family="Verdana" font-size="14" lengthAdjust="spacing" textLength="224" x="710" y="584.1338">Map&lt;String, dynamic&gt; toJson()</text></g><!--class FirebaseAuthDataSource--><g id="elem_FirebaseAuthDataSource"><rect codeLine="48" fill="#FFFFFF" height="180.1172" id="FirebaseAuthDataSource" rx="5" ry="5" style="stroke:#666666;stroke-width:1.0;" width="558" x="537" y="702"/><ellipse cx="725.25" cy="716" fill="#FFFFFF" rx="9" ry="9" style="stroke:#000000;stroke-width:1.0;"/><path d="M728.0156,717.5313 L730.4063,718.2813 Q729.8594,720.2656 728.5781,721.2344 Q727.3125,722.2031 725.3438,722.2031 Q722.9219,722.2031 721.3594,720.5469 Q719.8125,718.8906 719.8125,716.0156 Q719.8125,712.9844 721.375,711.3125 Q722.9375,709.625 725.5,709.625 Q727.7344,709.625 729.125,710.9375 Q729.9531,711.7188 730.375,713.1875 L727.9375,713.7656 Q727.7188,712.8125 727.0313,712.2656 Q726.3594,711.7188 725.375,711.7188 Q724.0156,711.7188 723.1719,712.7031 Q722.3438,713.6719 722.3438,715.8438 Q722.3438,718.1406 723.1719,719.125 Q724,720.1094 725.3281,720.1094 Q726.3125,720.1094 727.0156,719.4844 Q727.7188,718.8594 728.0156,717.5313 Z " fill="#000000"/><text fill="#000000" font-family="Verdana" font-size="14" lengthAdjust="spacing" textLength="174" x="742.75" y="721.5679">FirebaseAuthDataSource</text><line style="stroke:#666666;stroke-width:1.0;" x1="538" x2="1094" y1="730" y2="730"/><rect fill="none" height="6" style="stroke:#000000;stroke-width:1.0;" width="6" x="545" y="741.0073"/><text fill="#000000" font-family="Verdana" font-size="14" lengthAdjust="spacing" textLength="195" x="555" y="748.0752">FirebaseAuth _firebaseAuth</text><ellipse cx="548" cy="761.022" fill="none" rx="3" ry="3" style="stroke:#000000;stroke-width:1.0;"/><text fill="#000000" font-family="Verdana" font-size="14" lengthAdjust="spacing" textLength="341" x="555" y="765.0898">Stream&lt;Result&lt;UserDto?&gt;&gt; authStateChanges</text><line style="stroke:#666666;stroke-width:1.0;" x1="538" x2="1094" y1="772.0293" y2="772.0293"/><ellipse cx="548" cy="786.0366" fill="#FFFFFF" rx="3" ry="3" style="stroke:#000000;stroke-width:1.0;"/><text fill="#000000" font-family="Verdana" font-size="14" lengthAdjust="spacing" textLength="275" x="555" y="790.1045">FirebaseAuthDataSource(firebaseAuth)</text><ellipse cx="548" cy="803.0513" fill="#FFFFFF" rx="3" ry="3" style="stroke:#000000;stroke-width:1.0;"/><text fill="#000000" font-family="Verdana" font-size="14" lengthAdjust="spacing" textLength="272" x="555" y="807.1191">Future&lt;Result&lt;UserDto?&gt;&gt; getUser()</text><ellipse cx="548" cy="820.0659" fill="#FFFFFF" rx="3" ry="3" style="stroke:#000000;stroke-width:1.0;"/><text fill="#000000" font-family="Verdana" font-size="14" lengthAdjust="spacing" textLength="529" x="555" y="824.1338">Future&lt;Result&lt;UserDto&gt;&gt; signInWithEmailAndPassword(email, password)</text><ellipse cx="548" cy="837.0806" fill="#FFFFFF" rx="3" ry="3" style="stroke:#000000;stroke-width:1.0;"/><text fill="#000000" font-family="Verdana" font-size="14" lengthAdjust="spacing" textLength="235" x="555" y="841.1484">Future&lt;Result&lt;void&gt;&gt; signOut()</text><ellipse cx="548" cy="854.0952" fill="#FFFFFF" rx="3" ry="3" style="stroke:#000000;stroke-width:1.0;"/><text fill="#000000" font-family="Verdana" font-size="14" lengthAdjust="spacing" textLength="534" x="555" y="858.1631">Future&lt;Result&lt;UserDto&gt;&gt; signUpWithEmailAndPassword(email, password)</text><rect fill="#FFFFFF" height="6" style="stroke:#000000;stroke-width:1.0;" width="6" x="545" y="868.1099"/><text fill="#000000" font-family="Verdana" font-size="14" lengthAdjust="spacing" textLength="228" x="555" y="875.1777">String _mapFirebaseError(error)</text></g><!--class AuthRepositoryFirebase--><g id="elem_AuthRepositoryFirebase"><rect codeLine="59" fill="#FFFFFF" height="78.0293" id="AuthRepositoryFirebase" rx="5" ry="5" style="stroke:#666666;stroke-width:1.0;" width="375" x="281.5" y="487.5"/><ellipse cx="381.25" cy="501.5" fill="#FFFFFF" rx="9" ry="9" style="stroke:#000000;stroke-width:1.0;"/><path d="M384.0156,503.0313 L386.4063,503.7813 Q385.8594,505.7656 384.5781,506.7344 Q383.3125,507.7031 381.3438,507.7031 Q378.9219,507.7031 377.3594,506.0469 Q375.8125,504.3906 375.8125,501.5156 Q375.8125,498.4844 377.375,496.8125 Q378.9375,495.125 381.5,495.125 Q383.7344,495.125 385.125,496.4375 Q385.9531,497.2188 386.375,498.6875 L383.9375,499.2656 Q383.7188,498.3125 383.0313,497.7656 Q382.3594,497.2188 381.375,497.2188 Q380.0156,497.2188 379.1719,498.2031 Q378.3438,499.1719 378.3438,501.3438 Q378.3438,503.6406 379.1719,504.625 Q380,505.6094 381.3281,505.6094 Q382.3125,505.6094 383.0156,504.9844 Q383.7188,504.3594 384.0156,503.0313 Z " fill="#000000"/><text fill="#000000" font-family="Verdana" font-size="14" lengthAdjust="spacing" textLength="168" x="398.75" y="507.0679">AuthRepositoryFirebase</text><line style="stroke:#666666;stroke-width:1.0;" x1="282.5" x2="655.5" y1="515.5" y2="515.5"/><ellipse cx="292.5" cy="529.5073" fill="none" rx="3" ry="3" style="stroke:#000000;stroke-width:1.0;"/><text fill="#000000" font-family="Verdana" font-size="14" lengthAdjust="spacing" textLength="350" x="299.5" y="533.5752">FirebaseAuthDataSource firebaseAuthDataSource</text><line style="stroke:#666666;stroke-width:1.0;" x1="282.5" x2="655.5" y1="540.5146" y2="540.5146"/><ellipse cx="292.5" cy="554.522" fill="#FFFFFF" rx="3" ry="3" style="stroke:#000000;stroke-width:1.0;"/><text fill="#000000" font-family="Verdana" font-size="14" lengthAdjust="spacing" textLength="351" x="299.5" y="558.5898">AuthRepositoryFirebase(firebaseAuthDataSource)</text></g><!--class LoginScreen--><g id="elem_LoginScreen"><rect codeLine="66" fill="#FFFFFF" height="197.1318" id="LoginScreen" rx="5" ry="5" style="stroke:#666666;stroke-width:1.0;" width="323" x="1671.5" y="428"/><ellipse cx="1786.25" cy="442" fill="#FFFFFF" rx="9" ry="9" style="stroke:#000000;stroke-width:1.0;"/><path d="M1789.0156,443.5313 L1791.4063,444.2813 Q1790.8594,446.2656 1789.5781,447.2344 Q1788.3125,448.2031 1786.3438,448.2031 Q1783.9219,448.2031 1782.3594,446.5469 Q1780.8125,444.8906 1780.8125,442.0156 Q1780.8125,438.9844 1782.375,437.3125 Q1783.9375,435.625 1786.5,435.625 Q1788.7344,435.625 1790.125,436.9375 Q1790.9531,437.7188 1791.375,439.1875 L1788.9375,439.7656 Q1788.7188,438.8125 1788.0313,438.2656 Q1787.3594,437.7188 1786.375,437.7188 Q1785.0156,437.7188 1784.1719,438.7031 Q1783.3438,439.6719 1783.3438,441.8438 Q1783.3438,444.1406 1784.1719,445.125 Q1785,446.1094 1786.3281,446.1094 Q1787.3125,446.1094 1788.0156,445.4844 Q1788.7188,444.8594 1789.0156,443.5313 Z " fill="#000000"/><text fill="#000000" font-family="Verdana" font-size="14" lengthAdjust="spacing" textLength="86" x="1803.75" y="447.5679">LoginScreen</text><line style="stroke:#666666;stroke-width:1.0;" x1="1672.5" x2="1993.5" y1="456" y2="456"/><rect fill="none" height="6" style="stroke:#000000;stroke-width:1.0;" width="6" x="1679.5" y="467.0073"/><text fill="#000000" font-family="Verdana" font-size="14" lengthAdjust="spacing" textLength="166" x="1689.5" y="474.0752">bool _isPasswordVisible</text><rect fill="none" height="6" style="stroke:#000000;stroke-width:1.0;" width="6" x="1679.5" y="484.022"/><text fill="#000000" font-family="Verdana" font-size="14" lengthAdjust="spacing" textLength="151" x="1689.5" y="491.0898">String _selectedMode</text><rect fill="none" height="6" style="stroke:#000000;stroke-width:1.0;" width="6" x="1679.5" y="501.0366"/><text fill="#000000" font-family="Verdana" font-size="14" lengthAdjust="spacing" textLength="238" x="1689.5" y="508.1045">GlobalKey&lt;FormState&gt; _formKey</text><rect fill="none" height="6" style="stroke:#000000;stroke-width:1.0;" width="6" x="1679.5" y="518.0513"/><text fill="#000000" font-family="Verdana" font-size="14" lengthAdjust="spacing" textLength="92" x="1689.5" y="525.1191">String _email</text><rect fill="none" height="6" style="stroke:#000000;stroke-width:1.0;" width="6" x="1679.5" y="535.0659"/><text fill="#000000" font-family="Verdana" font-size="14" lengthAdjust="spacing" textLength="125" x="1689.5" y="542.1338">String _password</text><rect fill="none" height="6" style="stroke:#000000;stroke-width:1.0;" width="6" x="1679.5" y="552.0806"/><text fill="#000000" font-family="Verdana" font-size="14" lengthAdjust="spacing" textLength="299" x="1689.5" y="559.1484">EmailSignInValidator _emailSignInValidator</text><line style="stroke:#666666;stroke-width:1.0;" x1="1672.5" x2="1993.5" y1="566.0879" y2="566.0879"/><ellipse cx="1682.5" cy="580.0952" fill="#FFFFFF" rx="3" ry="3" style="stroke:#000000;stroke-width:1.0;"/><text fill="#000000" font-family="Verdana" font-size="14" lengthAdjust="spacing" textLength="146" x="1689.5" y="584.1631">void _handleSignIn()</text><ellipse cx="1682.5" cy="597.1099" fill="#FFFFFF" rx="3" ry="3" style="stroke:#000000;stroke-width:1.0;"/><text fill="#000000" font-family="Verdana" font-size="14" lengthAdjust="spacing" textLength="151" x="1689.5" y="601.1777">void _handleSignUp()</text><ellipse cx="1682.5" cy="614.1245" fill="#FFFFFF" rx="3" ry="3" style="stroke:#000000;stroke-width:1.0;"/><text fill="#000000" font-family="Verdana" font-size="14" lengthAdjust="spacing" textLength="233" x="1689.5" y="618.1924">void _showErrorDialog(message)</text></g><!--class AuthController--><g id="elem_AuthController"><rect codeLine="78" fill="#FFFFFF" height="112.0586" id="AuthController" rx="5" ry="5" style="stroke:#666666;stroke-width:1.0;" width="404" x="1788" y="736"/><ellipse cx="1934.75" cy="750" fill="#FFFFFF" rx="9" ry="9" style="stroke:#000000;stroke-width:1.0;"/><path d="M1937.5156,751.5313 L1939.9063,752.2813 Q1939.3594,754.2656 1938.0781,755.2344 Q1936.8125,756.2031 1934.8438,756.2031 Q1932.4219,756.2031 1930.8594,754.5469 Q1929.3125,752.8906 1929.3125,750.0156 Q1929.3125,746.9844 1930.875,745.3125 Q1932.4375,743.625 1935,743.625 Q1937.2344,743.625 1938.625,744.9375 Q1939.4531,745.7188 1939.875,747.1875 L1937.4375,747.7656 Q1937.2188,746.8125 1936.5313,746.2656 Q1935.8594,745.7188 1934.875,745.7188 Q1933.5156,745.7188 1932.6719,746.7031 Q1931.8438,747.6719 1931.8438,749.8438 Q1931.8438,752.1406 1932.6719,753.125 Q1933.5,754.1094 1934.8281,754.1094 Q1935.8125,754.1094 1936.5156,753.4844 Q1937.2188,752.8594 1937.5156,751.5313 Z " fill="#000000"/><text fill="#000000" font-family="Verdana" font-size="14" lengthAdjust="spacing" textLength="103" x="1952.25" y="755.5679">AuthController</text><line style="stroke:#666666;stroke-width:1.0;" x1="1789" x2="2191" y1="764" y2="764"/><line style="stroke:#666666;stroke-width:1.0;" x1="1789" x2="2191" y1="772" y2="772"/><ellipse cx="1799" cy="786.0073" fill="#FFFFFF" rx="3" ry="3" style="stroke:#000000;stroke-width:1.0;"/><text fill="#000000" font-family="Verdana" font-size="14" lengthAdjust="spacing" textLength="203" x="1806" y="790.0752">FutureOr&lt;AppUser?&gt; build()</text><ellipse cx="1799" cy="803.022" fill="#FFFFFF" rx="3" ry="3" style="stroke:#000000;stroke-width:1.0;"/><text fill="#000000" font-family="Verdana" font-size="14" lengthAdjust="spacing" textLength="375" x="1806" y="807.0898">Future&lt;Result&lt;AppUser?&gt;&gt; signIn(email, password)</text><ellipse cx="1799" cy="820.0366" fill="#FFFFFF" rx="3" ry="3" style="stroke:#000000;stroke-width:1.0;"/><text fill="#000000" font-family="Verdana" font-size="14" lengthAdjust="spacing" textLength="380" x="1806" y="824.1045">Future&lt;Result&lt;AppUser?&gt;&gt; signUp(email, password)</text><ellipse cx="1799" cy="837.0513" fill="#FFFFFF" rx="3" ry="3" style="stroke:#000000;stroke-width:1.0;"/><text fill="#000000" font-family="Verdana" font-size="14" lengthAdjust="spacing" textLength="235" x="1806" y="841.1191">Future&lt;Result&lt;void&gt;&gt; signOut()</text></g><!--class EmailSignInValidator--><g id="elem_EmailSignInValidator"><rect codeLine="85" fill="#FFFFFF" height="78.0293" id="EmailSignInValidator" rx="5" ry="5" style="stroke:#666666;stroke-width:1.0;" width="306" x="1447" y="753"/><ellipse cx="1524.75" cy="767" fill="#FFFFFF" rx="9" ry="9" style="stroke:#000000;stroke-width:1.0;"/><path d="M1527.5156,768.5313 L1529.9063,769.2813 Q1529.3594,771.2656 1528.0781,772.2344 Q1526.8125,773.2031 1524.8438,773.2031 Q1522.4219,773.2031 1520.8594,771.5469 Q1519.3125,769.8906 1519.3125,767.0156 Q1519.3125,763.9844 1520.875,762.3125 Q1522.4375,760.625 1525,760.625 Q1527.2344,760.625 1528.625,761.9375 Q1529.4531,762.7188 1529.875,764.1875 L1527.4375,764.7656 Q1527.2188,763.8125 1526.5313,763.2656 Q1525.8594,762.7188 1524.875,762.7188 Q1523.5156,762.7188 1522.6719,763.7031 Q1521.8438,764.6719 1521.8438,766.8438 Q1521.8438,769.1406 1522.6719,770.125 Q1523.5,771.1094 1524.8281,771.1094 Q1525.8125,771.1094 1526.5156,770.4844 Q1527.2188,769.8594 1527.5156,768.5313 Z " fill="#000000"/><text fill="#000000" font-family="Verdana" font-size="14" lengthAdjust="spacing" textLength="143" x="1542.25" y="772.5679">EmailSignInValidator</text><line style="stroke:#666666;stroke-width:1.0;" x1="1448" x2="1752" y1="781" y2="781"/><line style="stroke:#666666;stroke-width:1.0;" x1="1448" x2="1752" y1="789" y2="789"/><ellipse cx="1458" cy="803.0073" fill="#FFFFFF" rx="3" ry="3" style="stroke:#000000;stroke-width:1.0;"/><text fill="#000000" font-family="Verdana" font-size="14" lengthAdjust="spacing" textLength="251" x="1465" y="807.0752">Result&lt;String&gt; validateEmail(value)</text><ellipse cx="1458" cy="820.022" fill="#FFFFFF" rx="3" ry="3" style="stroke:#000000;stroke-width:1.0;"/><text fill="#000000" font-family="Verdana" font-size="14" lengthAdjust="spacing" textLength="282" x="1465" y="824.0898">Result&lt;String&gt; validatePassword(value)</text></g><!--class CurrentUser--><g id="elem_CurrentUser"><rect codeLine="90" fill="#FFFFFF" height="78.0293" id="CurrentUser" rx="5" ry="5" style="stroke:#666666;stroke-width:1.0;" width="276" x="2227" y="753"/><ellipse cx="2318.25" cy="767" fill="#FFFFFF" rx="9" ry="9" style="stroke:#000000;stroke-width:1.0;"/><path d="M2321.0156,768.5313 L2323.4063,769.2813 Q2322.8594,771.2656 2321.5781,772.2344 Q2320.3125,773.2031 2318.3438,773.2031 Q2315.9219,773.2031 2314.3594,771.5469 Q2312.8125,769.8906 2312.8125,767.0156 Q2312.8125,763.9844 2314.375,762.3125 Q2315.9375,760.625 2318.5,760.625 Q2320.7344,760.625 2322.125,761.9375 Q2322.9531,762.7188 2323.375,764.1875 L2320.9375,764.7656 Q2320.7188,763.8125 2320.0313,763.2656 Q2319.3594,762.7188 2318.375,762.7188 Q2317.0156,762.7188 2316.1719,763.7031 Q2315.3438,764.6719 2315.3438,766.8438 Q2315.3438,769.1406 2316.1719,770.125 Q2317,771.1094 2318.3281,771.1094 Q2319.3125,771.1094 2320.0156,770.4844 Q2320.7188,769.8594 2321.0156,768.5313 Z " fill="#000000"/><text fill="#000000" font-family="Verdana" font-size="14" lengthAdjust="spacing" textLength="86" x="2335.75" y="772.5679">CurrentUser</text><line style="stroke:#666666;stroke-width:1.0;" x1="2228" x2="2502" y1="781" y2="781"/><line style="stroke:#666666;stroke-width:1.0;" x1="2228" x2="2502" y1="789" y2="789"/><ellipse cx="2238" cy="803.0073" fill="#FFFFFF" rx="3" ry="3" style="stroke:#000000;stroke-width:1.0;"/><text fill="#000000" font-family="Verdana" font-size="14" lengthAdjust="spacing" textLength="252" x="2245" y="807.0752">Future&lt;Result&lt;AppUser?&gt;&gt; build()</text><ellipse cx="2238" cy="820.022" fill="#FFFFFF" rx="3" ry="3" style="stroke:#000000;stroke-width:1.0;"/><text fill="#000000" font-family="Verdana" font-size="14" lengthAdjust="spacing" textLength="185" x="2245" y="824.0898">void _setupAuthListener()</text></g><!--class DrawerScreen--><g id="elem_DrawerScreen"><rect codeLine="95" fill="#FFFFFF" height="61.0146" id="DrawerScreen" rx="5" ry="5" style="stroke:#666666;stroke-width:1.0;" width="270" x="2030" y="496"/><ellipse cx="2112.25" cy="510" fill="#FFFFFF" rx="9" ry="9" style="stroke:#000000;stroke-width:1.0;"/><path d="M2115.0156,511.5313 L2117.4063,512.2813 Q2116.8594,514.2656 2115.5781,515.2344 Q2114.3125,516.2031 2112.3438,516.2031 Q2109.9219,516.2031 2108.3594,514.5469 Q2106.8125,512.8906 2106.8125,510.0156 Q2106.8125,506.9844 2108.375,505.3125 Q2109.9375,503.625 2112.5,503.625 Q2114.7344,503.625 2116.125,504.9375 Q2116.9531,505.7188 2117.375,507.1875 L2114.9375,507.7656 Q2114.7188,506.8125 2114.0313,506.2656 Q2113.3594,505.7188 2112.375,505.7188 Q2111.0156,505.7188 2110.1719,506.7031 Q2109.3438,507.6719 2109.3438,509.8438 Q2109.3438,512.1406 2110.1719,513.125 Q2111,514.1094 2112.3281,514.1094 Q2113.3125,514.1094 2114.0156,513.4844 Q2114.7188,512.8594 2115.0156,511.5313 Z " fill="#000000"/><text fill="#000000" font-family="Verdana" font-size="14" lengthAdjust="spacing" textLength="98" x="2129.75" y="515.5679">DrawerScreen</text><line style="stroke:#666666;stroke-width:1.0;" x1="2031" x2="2299" y1="524" y2="524"/><line style="stroke:#666666;stroke-width:1.0;" x1="2031" x2="2299" y1="532" y2="532"/><ellipse cx="2041" cy="546.0073" fill="#FFFFFF" rx="3" ry="3" style="stroke:#000000;stroke-width:1.0;"/><text fill="#000000" font-family="Verdana" font-size="14" lengthAdjust="spacing" textLength="246" x="2048" y="550.0752">void _showSignOutDialog(context)</text></g><!--class HomeScreen--><g id="elem_HomeScreen"><rect codeLine="99" fill="#FFFFFF" height="61.0146" id="HomeScreen" rx="5" ry="5" style="stroke:#666666;stroke-width:1.0;" width="178" x="1458" y="496"/><ellipse cx="1499.25" cy="510" fill="#FFFFFF" rx="9" ry="9" style="stroke:#000000;stroke-width:1.0;"/><path d="M1502.0156,511.5313 L1504.4063,512.2813 Q1503.8594,514.2656 1502.5781,515.2344 Q1501.3125,516.2031 1499.3438,516.2031 Q1496.9219,516.2031 1495.3594,514.5469 Q1493.8125,512.8906 1493.8125,510.0156 Q1493.8125,506.9844 1495.375,505.3125 Q1496.9375,503.625 1499.5,503.625 Q1501.7344,503.625 1503.125,504.9375 Q1503.9531,505.7188 1504.375,507.1875 L1501.9375,507.7656 Q1501.7188,506.8125 1501.0313,506.2656 Q1500.3594,505.7188 1499.375,505.7188 Q1498.0156,505.7188 1497.1719,506.7031 Q1496.3438,507.6719 1496.3438,509.8438 Q1496.3438,512.1406 1497.1719,513.125 Q1498,514.1094 1499.3281,514.1094 Q1500.3125,514.1094 1501.0156,513.4844 Q1501.7188,512.8594 1502.0156,511.5313 Z " fill="#000000"/><text fill="#000000" font-family="Verdana" font-size="14" lengthAdjust="spacing" textLength="88" x="1516.75" y="515.5679">HomeScreen</text><line style="stroke:#666666;stroke-width:1.0;" x1="1459" x2="1635" y1="524" y2="524"/><line style="stroke:#666666;stroke-width:1.0;" x1="1459" x2="1635" y1="532" y2="532"/><ellipse cx="1469" cy="546.0073" fill="#FFFFFF" rx="3" ry="3" style="stroke:#000000;stroke-width:1.0;"/><text fill="#000000" font-family="Verdana" font-size="14" lengthAdjust="spacing" textLength="154" x="1476" y="550.0752">Widget build(context)</text></g><g id="elem_GMN31"><path d="M1162.5,16 L1162.5,47.5986 A5,5 0 0 0 1167.5,52.5986 L1334.5,52.5986 A5,5 0 0 0 1339.5,47.5986 L1339.5,21 L1329.5,11 L1167.5,11 A5,5 0 0 0 1162.5,16 " fill="#FFFFFF" style="stroke:#000000;stroke-width:1.0;"/><path d="M1329.5,11 L1329.5,18.5 A2.5,2.5 0 0 0 1332,21 L1339.5,21 L1329.5,11 " fill="#FFFFFF" style="stroke:#000000;stroke-width:1.0;"/><text fill="#000000" font-family="Verdana" font-size="13" font-weight="bold" lengthAdjust="spacing" textLength="78" x="1168.5" y="29.0698">&#29420;&#31435;&#12524;&#12452;&#12516;&#12540;</text><text fill="#000000" font-family="Verdana" font-size="13" lengthAdjust="spacing" textLength="156" x="1168.5" y="44.8691">&#20182;&#12398;&#12524;&#12452;&#12516;&#12540;&#12395;&#20381;&#23384;&#12375;&#12394;&#12356;</text></g><g id="elem_GMN34"><path d="M11,510.5 L11,542.0986 A5,5 0 0 0 16,547.0986 L206,547.0986 A5,5 0 0 0 211,542.0986 L211,515.5 L201,505.5 L16,505.5 A5,5 0 0 0 11,510.5 " fill="#FFFFFF" style="stroke:#000000;stroke-width:1.0;"/><path d="M201,505.5 L201,513 A2.5,2.5 0 0 0 203.5,515.5 L211,515.5 L201,505.5 " fill="#FFFFFF" style="stroke:#000000;stroke-width:1.0;"/><text fill="#000000" font-family="Verdana" font-size="13" font-weight="bold" lengthAdjust="spacing" textLength="98" x="17" y="523.5698">Domain &#12395;&#20381;&#23384;</text><text fill="#000000" font-family="Verdana" font-size="13" lengthAdjust="spacing" textLength="179" x="17" y="539.3691">Presentation &#12395;&#12399;&#20381;&#23384;&#12375;&#12394;&#12356;</text></g><g id="elem_GMN37"><path d="M2551,510.5 L2551,542.0986 A5,5 0 0 0 2556,547.0986 L2694,547.0986 A5,5 0 0 0 2699,542.0986 L2699,515.5 L2689,505.5 L2556,505.5 A5,5 0 0 0 2551,510.5 " fill="#FFFFFF" style="stroke:#000000;stroke-width:1.0;"/><path d="M2689,505.5 L2689,513 A2.5,2.5 0 0 0 2691.5,515.5 L2699,515.5 L2689,505.5 " fill="#FFFFFF" style="stroke:#000000;stroke-width:1.0;"/><text fill="#000000" font-family="Verdana" font-size="13" font-weight="bold" lengthAdjust="spacing" textLength="98" x="2557" y="523.5698">Domain &#12395;&#20381;&#23384;</text><text fill="#000000" font-family="Verdana" font-size="13" lengthAdjust="spacing" textLength="127" x="2557" y="539.3691">Data &#12395;&#12399;&#20381;&#23384;&#12375;&#12394;&#12356;</text></g><!--reverse link AuthRepository to AuthRepositoryFirebase--><g id="link_AuthRepository_AuthRepositoryFirebase"><path codeLine="105" d="M1621.6025,302.7772 C1567.6625,328.4972 1519.56,346.77 1458,360 C1415.47,369.14 716.13,353.84 675,368 C605.83,391.81 541.47,448.85 503.68,487.35 " fill="none" id="AuthRepository-backto-AuthRepositoryFirebase" style="stroke:#000000;stroke-width:1.0;stroke-dasharray:7.0,7.0;"/><polygon fill="none" points="1637.85,295.03,1619.0201,297.3614,1624.1849,308.193,1637.85,295.03" style="stroke:#000000;stroke-width:1.0;"/><text fill="#000000" font-family="Verdana" font-size="13" lengthAdjust="spacing" textLength="73" x="1512" y="357.0698">implements</text></g><!--reverse link AppUser to UserDto--><g id="link_AppUser_UserDto"><path codeLine="106" d="M1329.5392,276.0594 C1314.4592,296.1594 1299.73,314.81 1282,335 C1278.68,338.78 1276.82,338.83 1274,343 C1252.96,374.11 1235.7,411.81 1222.81,444.86 " fill="none" id="AppUser-backto-UserDto" style="stroke:#000000;stroke-width:1.0;stroke-dasharray:7.0,7.0;"/><polygon fill="#000000" points="1333.14,271.26,1324.5392,276.0586,1330.1394,275.2595,1330.9385,280.8596,1333.14,271.26" style="stroke:#000000;stroke-width:1.0;"/><text fill="#000000" font-family="Verdana" font-size="13" lengthAdjust="spacing" textLength="77" x="1275" y="357.0698">converts to</text></g><!--reverse link UserDto to FirebaseAuthDataSource--><g id="link_UserDto_FirebaseAuthDataSource"><path codeLine="107" d="M1074.7295,611.5892 C1031.9595,641.2492 988.23,671.57 944.45,701.93 " fill="none" id="UserDto-backto-FirebaseAuthDataSource" style="stroke:#000000;stroke-width:1.0;stroke-dasharray:7.0,7.0;"/><polygon fill="#000000" points="1079.66,608.17,1069.9849,610.0118,1075.5513,611.0193,1074.5438,616.5857,1079.66,608.17" style="stroke:#000000;stroke-width:1.0;"/><text fill="#000000" font-family="Verdana" font-size="13" lengthAdjust="spacing" textLength="50" x="1007" y="669.0698">creates</text></g><!--reverse link AuthRepository to AuthController--><g id="link_AuthRepository_AuthController"><path codeLine="110" d="M2056.9299,268.3444 C2172.6199,291.8444 2281.81,324.09 2318,368 C2404.08,472.44 2419.89,565.79 2336,672 C2300.32,717.17 2264.84,684.49 2210,702 C2179.39,711.78 2147,723.86 2116.77,735.93 " fill="none" id="AuthRepository-backto-AuthController" style="stroke:#000000;stroke-width:1.0;stroke-dasharray:7.0,7.0;"/><polygon fill="#000000" points="2051.05,267.15,2059.0736,272.8615,2055.9499,268.1453,2060.6661,265.0216,2051.05,267.15" style="stroke:#000000;stroke-width:1.0;"/><text fill="#000000" font-family="Verdana" font-size="13" lengthAdjust="spacing" textLength="30" x="2392" y="532.0698">uses</text></g><!--reverse link AuthRepository to CurrentUser--><g id="link_AuthRepository_CurrentUser"><path codeLine="111" d="M2057.1383,250.9863 C2214.8683,271.8363 2382.81,307.25 2431,368 C2522.23,483 2433.41,672.32 2388.06,752.84 " fill="none" id="AuthRepository-backto-CurrentUser" style="stroke:#000000;stroke-width:1.0;stroke-dasharray:7.0,7.0;"/><polygon fill="#000000" points="2051.19,250.2,2059.5882,255.3449,2056.1469,250.8552,2060.6366,247.4139,2051.19,250.2" style="stroke:#000000;stroke-width:1.0;"/><text fill="#000000" font-family="Verdana" font-size="13" lengthAdjust="spacing" textLength="30" x="2471" y="532.0698">uses</text></g><!--link LoginScreen to AuthController--><g id="link_LoginScreen_AuthController"><path codeLine="114" d="M1891.24,625.24 C1913.49,662.59 1935.0099,698.695 1954.0799,730.715 " fill="none" id="LoginScreen-to-AuthController" style="stroke:#000000;stroke-width:1.0;"/><polygon fill="#000000" points="1957.15,735.87,1955.9815,726.0907,1954.5915,731.5742,1949.1081,730.1842,1957.15,735.87" style="stroke:#000000;stroke-width:1.0;"/><text fill="#000000" font-family="Verdana" font-size="13" lengthAdjust="spacing" textLength="30" x="1917" y="669.0698">uses</text></g><!--link LoginScreen to EmailSignInValidator--><g id="link_LoginScreen_EmailSignInValidator"><path codeLine="115" d="M1746.57,625.24 C1707.33,669.62 1667.1752,715.0358 1637.6852,748.3758 " fill="none" id="LoginScreen-to-EmailSignInValidator" style="stroke:#000000;stroke-width:1.0;"/><polygon fill="#000000" points="1633.71,752.87,1642.6689,748.7789,1637.0227,749.1248,1636.6767,743.4786,1633.71,752.87" style="stroke:#000000;stroke-width:1.0;"/><text fill="#000000" font-family="Verdana" font-size="13" lengthAdjust="spacing" textLength="30" x="1717" y="669.0698">uses</text></g><!--link DrawerScreen to CurrentUser--><g id="link_DrawerScreen_CurrentUser"><path codeLine="116" d="M2187.55,557.21 C2224.02,605.26 2292.2826,695.1907 2332.4626,748.1307 " fill="none" id="DrawerScreen-to-CurrentUser" style="stroke:#000000;stroke-width:1.0;"/><polygon fill="#000000" points="2336.09,752.91,2333.8351,743.3227,2333.0672,748.9272,2327.4627,748.1593,2336.09,752.91" style="stroke:#000000;stroke-width:1.0;"/><text fill="#000000" font-family="Verdana" font-size="13" lengthAdjust="spacing" textLength="56" x="2271" y="669.0698">watches</text></g><!--link AuthRepositoryFirebase to FirebaseAuthDataSource--><g id="link_AuthRepositoryFirebase_FirebaseAuthDataSource"><path codeLine="119" d="M519.09,565.53 C565.82,601.02 632.5416,651.6914 693.6716,698.1114 " fill="none" id="AuthRepositoryFirebase-to-FirebaseAuthDataSource" style="stroke:#000000;stroke-width:1.0;"/><polygon fill="#000000" points="698.45,701.74,693.7014,693.1115,694.468,698.7162,688.8633,699.4828,698.45,701.74" style="stroke:#000000;stroke-width:1.0;"/><text fill="#000000" font-family="Verdana" font-size="13" lengthAdjust="spacing" textLength="30" x="653" y="669.0698">uses</text></g><!--link GMN31 to Domain Layer--><g id="link_GMN31_Domain Layer"><path d="M1251,53.28 C1251,65.31 1251,81.6675 1251,99.4939 C1251,101.7222 1251,103.9735 1251,106.2421 C1251,106.8092 1251,107.3775 1251,107.9467 " fill="none" id="GMN31-Domain Layer" style="stroke:#000000;stroke-width:1.0;stroke-dasharray:7.0,7.0;"/></g><!--link GMN34 to Data Layer--><g id="link_GMN34_Data Layer"><path d="M211.2,526.5 C216.91,526.5 222.62,526.5 228.33,526.5 C231.185,526.5 234.04,526.5 236.895,526.5 C237.2519,526.5 237.6088,526.5 237.9656,526.5 " fill="none" id="GMN34-Data Layer" style="stroke:#000000;stroke-width:1.0;stroke-dasharray:7.0,7.0;"/></g><!--link Presentation Layer to GMN37--><g id="link_Presentation Layer_GMN37"><path d="M1414.8596,494.919 C1414.7581,494.4392 1414.6566,493.9554 1414.5554,493.4678 C1414.1505,491.5175 1413.7488,489.5066 1413.355,487.4425 C1412.5674,483.3141 1411.8113,478.9725 1411.1241,474.4761 C1409.7498,465.4832 1408.6509,455.8709 1408.1263,446.1063 C1406.0275,407.0475 1413.115,365.55 1448.5,351.5 C1502.87,329.91 2447.13,329.91 2501.5,351.5 C2568.55,378.12 2604.9,464.9 2618.58,505.36 " fill="none" id="Presentation Layer-GMN37" style="stroke:#000000;stroke-width:1.0;stroke-dasharray:7.0,7.0;"/></g><!--reverse link Domain Layer to Data Layer--><g id="link_Domain Layer_Data Layer"><path codeLine="127" d="M1236.8516,224.3155 C1236.0966,224.3067 1240.1977,224.357 1239.3547,224.3479 C1232.611,224.2753 1223.0754,224.1957 1211.1073,224.154 C1187.1711,224.0706 1153.5054,224.139 1112.987,224.7186 C1031.9503,225.8778 923.5031,229.0819 810.6612,237.2062 C584.9775,253.455 341.715,289.385 265,368 C240.765,392.835 235.7825,431.3775 236.9725,464.1175 C237.1212,468.21 237.3664,472.2118 237.6825,476.0849 C237.7616,477.0532 237.845,478.0134 237.9325,478.965 C237.9544,479.2029 237.9765,479.4402 237.9989,479.677 " fill="none" id="Domain Layer-backto-Data Layer" style="stroke:#000000;stroke-width:1.0;stroke-dasharray:7.0,7.0;"/><polygon fill="#000000" points="1242.8512,224.3878,1233.9,220.2797,1237.8515,224.3276,1233.8037,228.2791,1242.8512,224.3878" style="stroke:#000000;stroke-width:1.0;"/><text fill="#000000" font-family="Verdana" font-size="13" lengthAdjust="spacing" textLength="76" x="287" y="357.0698">depends on</text></g><!--reverse link Domain Layer to Presentation Layer--><g id="link_Domain Layer_Presentation Layer"><path codeLine="128" d="M1260.8445,324.5857 C1261.0264,324.9163 1258.6325,320.462 1258.8197,320.7894 C1261.8153,326.0264 1265.4975,330.8375 1270,335 C1284.26,348.18 1341.44,331.39 1357,343 C1374.0125,355.6925 1386.6488,373.1906 1396.0323,392.3603 C1400.7241,401.9452 1404.6028,411.9479 1407.8087,421.9768 C1409.4117,426.9912 1410.8464,432.0122 1412.1306,436.9907 C1412.7727,439.48 1413.3771,441.9586 1413.9461,444.4205 C1414.2305,445.6515 1414.5061,446.8783 1414.7732,448.1001 C1414.8399,448.4056 1414.9061,448.7107 1414.9718,449.0155 " fill="none" id="Domain Layer-backto-Presentation Layer" style="stroke:#000000;stroke-width:1.0;stroke-dasharray:7.0,7.0;"/><polygon fill="#000000" points="1257.9952,319.3054,1258.749,329.1254,1260.3696,323.7056,1265.7894,325.3263,1257.9952,319.3054" style="stroke:#000000;stroke-width:1.0;"/><text fill="#000000" font-family="Verdana" font-size="13" lengthAdjust="spacing" textLength="76" x="1373" y="357.0698">depends on</text></g><!--SRC=[lLPRRnj557xthnZA0qv88Y02XSXnPM8R0hafJbeX8KLZxx4zT3sppCmcM129952A0gWKARGF2AdgGqNBHUA5IyIFmKciFFKlS7Ptrfwrrwdf0nl7yfxvpdVkC_ESRa8BYETInZFg1kCUbRH5ghHseo65pvr5uGf9dYyNWZyBuI62Dk0D8HsG1ZGRFYcW8RQvyki9jffBbKfmlHO-Gv0Xfl2nO8nha7LQ6pPQcYs_KYvQK5fLMjAQJYETBRra8Lt6GRSz8CeBVYfhATIh2Sb1afTj7TMaZjXbl47gr5MGoPXaa2j5qS9iasNQ1da5_PehlrgQ8nzbI1GZANZUbaAwG4B8YnKj0nQVEObtG18taXY5B4Ac8la4BkpXFtvw2I45NpStm1EAQI7R99VhBUNpbZ6WhTm6AD_LEKDy5TSfAbSqrR3OfBo1AGZXPL_x4bBW3T2XInDFmIdMu4lyEjFDKk1tWJlhc89Tx8Hi6CWKzb3qdigq8vXZMDPyFPQrBMzSQtkPFRjgLDD-pS9UiceMM2XgSNdDhjf5Cne3HUilpDIbQ9MPX2fL4EQoRhsaODzMWcVVno-pjaAzN6HtYZXjJbkibYTQXB29HEEWjCGrq-sirJTHN66UAc6HDk037vGUZj8AoaZYB4R2L8uHvKt5FbDuYJ3YF0OZ41Io8do94n75CMslakswzMRwALKxQmCdqiR7L6VSyR7WbuwFmVq_qvCqDlxmO5fDCsotg1Tdi2Iba5a8leTgbDoUOesurqPKi9ugDjsTIfXDLnaU-7K92ZZMZ8d-PXqT3TRWBui6uvMQ1E1nErM5SCasKt5whZ75gYuaawB0XPe6PqKuPkLDLrIf-mwqSsKXMs6pvB4RyJVAaihzYUk94YCtROtHDUeoXs86ZDg0D4fLq0ba6rlJSI42nDqmkBBb9LTKK-o6LIqowef6jWLAOVfIgxiek9R2TVjdMzHhQxA_IPEgprndp7DZh2uVsl-VTJP6ROpz39ke34LKcZpPYTOXLCdYcmyJbm9xSzN39aml-b9YOzftX94H9x9fAWRQzu9oB3EbWPjT9c6XAEako4HNM-MkH3an1QzXKU53FSJnbcX1ak4wSt1VCoubr73iNY0B2mkaMDWiaEN2kwKDyi_DEwIujb9OMZM2plxFftz_V_RJtG2P6R5RpFZUpCVvmQlEF64jpyMBBjSg4n_L0JJVkspD4_He1wHMU8XaHkmsaKfCW2gusslSp8ttwnkbIcbrix2vjBOwVXJML1YN1ftt5TgmgtuPRhGlPpS_kpXys7FWoScjizjVdlx-IUVmSUVWGUSGFoU8UNBoHUYRlRDDJ-S79zYO6qIbpeN19jeg0DinpPDTgclDVWHMB_n7pqVqHc1nH67xkOiieAdpup_ERd_JERXpVlVhxlq_E_kFElltEWT7vxyzlFZyLeOB3TWf7X7rmHlzF9cSx1uzxZuwilsRd7oFd_vrZCos56bZYzzrzd_ix7yQCRjGrn6rTUqCY8sfdbv0cpYfGaT_IIMLhD6CMDFEjb7ieGVfh9WlEvYBuszxDUgbh_i0StUl-yFziwz-pIJ2YRfuA7aEUC0THGJFfFhvTBL_0G00]--></g></svg>